<svg width="240" height="206" viewBox="0 0 240 206" fill="none" xmlns="http://www.w3.org/2000/svg">
<path d="M108.231 72.5712C136.879 110.654 228.033 141.292 216.758 186.729C203.331 240.824 117.063 163.55 71.6056 155.755C7.45356 144.739 -18.9136 61.0951 14.5816 17.3616C29.7836 -2.49962 62.0216 -8.55842 89.6912 16.584C115.592 40.1453 91.8167 50.753 108.231 72.5712Z" fill="#7866F2"/>
<path opacity="0.9" d="M108.231 72.5712C136.879 110.654 228.033 141.292 216.758 186.729C203.331 240.824 117.063 163.55 71.6056 155.755C7.45356 144.739 -18.9136 61.0951 14.5816 17.3616C29.7836 -2.49962 62.0216 -8.55842 89.6912 16.584C115.592 40.1453 91.8167 50.753 108.231 72.5712Z" fill="white"/>
<path d="M225.123 180.248H150.914C149.982 180.252 149.059 180.067 148.201 179.704C147.342 179.341 146.566 178.807 145.92 178.135C145.274 177.463 144.772 176.667 144.443 175.795C144.114 174.923 143.965 173.993 144.007 173.062L149.456 32.1864C149.549 30.2634 150.373 28.4483 151.759 27.1125C153.145 25.7766 154.99 25.021 156.915 25.0001H231.124C232.056 24.9957 232.979 25.1806 233.838 25.5438C234.696 25.907 235.472 26.4407 236.118 27.1128C236.764 27.7848 237.267 28.581 237.596 29.4531C237.924 30.3253 238.073 31.2552 238.032 32.1864L232.582 173.062C232.489 174.985 231.666 176.8 230.279 178.136C228.893 179.471 227.049 180.227 225.123 180.248Z" fill="#7866F2"/>
<path d="M237.983 79.7136L237.529 91.3558L238.241 91.3836L238.695 79.7413L237.983 79.7136Z" fill="#7866F2"/>
<path d="M238.353 70.6501L238.165 75.4611L238.877 75.4889L239.065 70.6779L238.353 70.6501Z" fill="#7866F2"/>
<path opacity="0.8" d="M225.123 180.248H150.914C149.982 180.252 149.059 180.067 148.201 179.704C147.342 179.341 146.566 178.807 145.92 178.135C145.274 177.463 144.772 176.667 144.443 175.795C144.114 174.923 143.965 173.993 144.007 173.062L149.456 32.1864C149.549 30.2634 150.373 28.4483 151.759 27.1125C153.145 25.7766 154.99 25.021 156.915 25.0001H231.124C232.056 24.9957 232.979 25.1806 233.838 25.5438C234.696 25.907 235.472 26.4407 236.118 27.1128C236.764 27.7848 237.267 28.581 237.596 29.4531C237.924 30.3253 238.073 31.2552 238.032 32.1864L232.582 173.062C232.489 174.985 231.666 176.8 230.279 178.136C228.893 179.471 227.049 180.227 225.123 180.248Z" fill="white"/>
<path d="M218.021 177.39H152.573C151.756 177.394 150.947 177.231 150.195 176.913C149.442 176.594 148.762 176.127 148.196 175.538C147.629 174.949 147.188 174.251 146.899 173.487C146.61 172.723 146.479 171.908 146.514 171.092L151.614 39.1589C151.697 37.4726 152.42 35.8815 153.637 34.7107C154.853 33.54 156.471 32.8781 158.159 32.8603H223.607C224.424 32.856 225.234 33.0178 225.987 33.3359C226.74 33.654 227.42 34.1217 227.987 34.7108C228.553 35.2998 228.994 35.9978 229.283 36.7624C229.572 37.5271 229.702 38.3424 229.666 39.1589L224.566 171.092C224.482 172.777 223.758 174.368 222.542 175.538C221.326 176.708 219.709 177.371 218.021 177.39Z" fill="#7866F2"/>
<path opacity="0.8" d="M188.654 169.919C190.386 168.22 190.466 165.492 188.832 163.827C187.197 162.161 184.469 162.188 182.737 163.887C181.004 165.587 180.925 168.314 182.559 169.98C184.193 171.646 186.922 171.619 188.654 169.919Z" fill="white"/>
<path d="M186.44 136.41C182.984 136.433 179.559 135.752 176.375 134.408C173.191 133.065 170.313 131.087 167.918 128.595C165.523 126.103 163.661 123.149 162.445 119.914C161.229 116.679 160.684 113.23 160.844 109.777L161.719 87.0648H161.674C161.417 87.0636 161.162 87.042 160.909 87L160.028 109.777C159.864 113.335 160.426 116.889 161.68 120.222C162.935 123.555 164.854 126.598 167.322 129.166C169.79 131.733 172.755 133.772 176.036 135.156C179.318 136.541 182.846 137.243 186.408 137.22C193.956 137.186 201.181 134.156 206.496 128.796C206.303 128.6 206.133 128.383 205.99 128.148C203.438 130.746 200.396 132.814 197.041 134.232C193.685 135.65 190.083 136.39 186.44 136.41Z" fill="white"/>
<path d="M189.995 55.6893C176.109 55.6893 164.205 66.0573 161.885 79.4644C162.058 79.4544 162.231 79.4544 162.404 79.4644C162.507 79.4644 162.604 79.4644 162.708 79.4644C165.002 66.5044 176.53 56.5123 189.963 56.5123C193.42 56.4883 196.845 57.1687 200.03 58.512C203.215 59.8552 206.093 61.8332 208.489 64.3252C210.885 66.8173 212.748 69.7712 213.964 73.0068C215.181 76.2425 215.726 79.692 215.565 83.1451L214.516 110.27C214.346 114.507 213.19 118.645 211.14 122.356C211.397 122.43 211.643 122.539 211.872 122.68C213.971 118.868 215.154 114.619 215.326 110.27L216.375 83.1451C216.542 79.5861 215.982 76.0306 214.729 72.6953C213.476 69.36 211.557 66.315 209.088 63.7458C206.62 61.1767 203.654 59.1374 200.371 57.7522C197.088 56.3671 193.558 55.6652 189.995 55.6893Z" fill="white"/>
<path d="M189.782 61.2362C194.148 61.2255 198.424 62.4791 202.094 64.8456C202.21 64.5944 202.351 64.3556 202.515 64.1328C198.719 61.696 194.299 60.4088 189.788 60.4262C184.684 60.4426 179.707 62.026 175.532 64.9622C175.675 65.1914 175.795 65.4345 175.888 65.688C179.948 62.8039 184.802 61.2486 189.782 61.2362Z" fill="white"/>
<path d="M164.704 112.862C164.503 111.474 164.429 110.071 164.484 108.67L165.41 84.6938C165.612 79.7514 167.327 74.9901 170.322 71.0534C170.09 70.9364 169.873 70.7929 169.674 70.6257C166.59 74.6876 164.826 79.5978 164.62 84.6938L163.693 108.67C163.636 110.136 163.714 111.605 163.926 113.057C164.179 112.967 164.439 112.902 164.704 112.862Z" fill="white"/>
<path d="M208.36 69.5112C208.163 69.7112 207.946 69.8893 207.712 70.0426C210.924 74.2423 212.557 79.4377 212.325 84.7198L211.399 108.696C211.103 114.98 208.413 120.912 203.881 125.276C199.349 129.639 193.318 132.102 187.028 132.16C182.033 132.183 177.172 130.549 173.206 127.514C172.974 127.694 172.721 127.846 172.454 127.967C176.596 131.23 181.722 132.994 186.995 132.97C193.503 132.911 199.742 130.363 204.431 125.849C209.12 121.335 211.903 115.197 212.209 108.696L213.135 84.7198C213.379 79.2468 211.688 73.8627 208.36 69.5112Z" fill="white"/>
<path d="M168.21 94.2259L168.514 86.3073C168.77 80.872 171.097 75.7409 175.017 71.9669C178.937 68.1929 184.152 66.0622 189.594 66.0119C194.174 65.9782 198.618 67.5689 202.137 70.5015C205.656 73.4341 208.021 77.5189 208.813 82.0305C209.078 81.9834 209.347 81.9596 209.617 81.9592C208.811 77.2463 206.356 72.9733 202.691 69.9036C199.025 66.8339 194.388 65.1674 189.607 65.2019C183.947 65.2521 178.522 67.4671 174.446 71.3921C170.369 75.3172 167.949 80.6543 167.685 86.3073L167.393 94.2842C167.58 94.2611 167.768 94.2481 167.957 94.2453L168.21 94.2259Z" fill="white"/>
<path d="M195.672 125.557C193.024 126.751 190.153 127.371 187.248 127.378C184.609 127.402 181.994 126.889 179.56 125.868C177.127 124.848 174.928 123.341 173.097 121.442C171.266 119.542 169.841 117.289 168.911 114.82C167.98 112.351 167.563 109.718 167.685 107.082L167.873 102.313H167.62C167.433 102.314 167.247 102.301 167.063 102.274L166.875 107.069C166.748 109.806 167.18 112.539 168.144 115.103C169.108 117.667 170.584 120.008 172.483 121.983C174.381 123.958 176.662 125.525 179.186 126.59C181.71 127.654 184.424 128.193 187.164 128.175C190.238 128.171 193.277 127.508 196.074 126.231C195.914 126.022 195.779 125.796 195.672 125.557Z" fill="white"/>
<path d="M209.306 90.0723C209.189 90.0723 209.072 90.0723 208.962 90.0723L208.314 107.102C208.093 112.277 205.97 117.189 202.353 120.898C202.515 121.119 202.652 121.358 202.761 121.61C206.621 117.739 208.891 112.563 209.124 107.102L209.772 90.0658C209.623 90.0593 209.468 90.0723 209.306 90.0723Z" fill="white"/>
<path d="M196.676 71.507C194.404 70.4814 191.938 69.9533 189.445 69.9583C184.635 70.001 180.023 71.8833 176.558 75.2189C173.092 78.5544 171.035 83.0902 170.808 87.8949L170.128 105.488C170.091 106.525 170.143 107.564 170.283 108.592C170.519 108.377 170.778 108.188 171.054 108.028C170.95 107.186 170.911 106.337 170.938 105.488L171.618 87.8949C171.835 83.3074 173.799 78.9767 177.108 75.7919C180.417 72.607 184.82 70.8095 189.412 70.7683C191.77 70.7715 194.101 71.2774 196.249 72.2522C196.367 71.9907 196.51 71.7411 196.676 71.507Z" fill="white"/>
<path d="M202.91 76.3477C202.752 76.5809 202.572 76.7979 202.372 76.9957C204.809 80.0914 206.053 83.9592 205.878 87.895L205.197 105.488C204.985 109.943 203.123 114.16 199.975 117.319C196.826 120.479 192.616 122.354 188.161 122.582C188.077 122.872 187.962 123.153 187.818 123.418C192.551 123.271 197.054 121.343 200.427 118.018C203.799 114.694 205.792 110.219 206.007 105.488L206.688 87.895C206.874 83.7147 205.531 79.6098 202.91 76.3477Z" fill="white"/>
<path d="M186.017 75.9005C186.03 75.6167 186.069 75.3347 186.133 75.0581C184.064 75.507 182.109 76.3784 180.392 77.6177C180.642 77.745 180.873 77.9064 181.079 78.0972C182.572 77.0607 184.247 76.3154 186.017 75.9005Z" fill="white"/>
<path d="M201.458 107.523C200.547 110.499 198.711 113.108 196.218 114.972C193.725 116.836 190.704 117.858 187.591 117.891C185.776 117.903 183.978 117.546 182.306 116.84C180.634 116.134 179.124 115.095 177.867 113.785C176.61 112.476 175.634 110.924 174.997 109.224C174.361 107.525 174.077 105.713 174.165 103.901L174.722 89.4825C174.791 87.7785 175.169 86.1011 175.837 84.5318C175.605 84.3443 175.4 84.1263 175.227 83.8838C174.443 85.6437 174.003 87.5376 173.931 89.4631L173.374 103.881C173.286 105.797 173.589 107.71 174.264 109.505C174.94 111.299 175.973 112.938 177.302 114.32C178.631 115.702 180.228 116.799 181.994 117.545C183.761 118.29 185.661 118.668 187.578 118.655C190.875 118.618 194.075 117.534 196.715 115.56C199.355 113.586 201.3 110.823 202.268 107.672C201.994 107.647 201.723 107.597 201.458 107.523Z" fill="white"/>
<path d="M202.677 89.4825L202.56 92.4763C202.774 92.438 202.991 92.4163 203.208 92.4115H203.383L203.493 89.4631C203.621 86.4023 202.748 83.3833 201.007 80.8626C199.267 78.3419 196.752 76.4567 193.844 75.4922C193.87 75.7811 193.87 76.0716 193.844 76.3605C196.526 77.3164 198.83 79.1065 200.42 81.4681C202.01 83.8297 202.8 86.6385 202.677 89.4825Z" fill="white"/>
<path d="M189.069 79.4645C185.957 79.4942 182.974 80.7139 180.733 82.8732C178.491 85.0326 177.161 87.9678 177.016 91.0767L176.893 94.2778C177.164 94.2957 177.432 94.3368 177.696 94.4009L177.826 91.0767C177.962 88.1801 179.203 85.446 181.295 83.4376C183.387 81.4291 186.169 80.2994 189.069 80.281C190.469 80.2734 191.856 80.5507 193.145 81.096C194.435 81.6414 195.6 82.4434 196.57 83.4532C197.54 84.4631 198.294 85.6597 198.787 86.9703C199.28 88.2809 199.501 89.678 199.437 91.0767L199.002 102.313C198.881 104.843 197.916 107.259 196.263 109.178C194.61 111.096 192.363 112.407 189.879 112.901C189.908 113.173 189.908 113.446 189.879 113.718C192.577 113.212 195.026 111.811 196.83 109.742C198.633 107.672 199.687 105.055 199.819 102.313L200.253 91.0767C200.323 89.5694 200.084 88.0637 199.552 86.6516C199.021 85.2395 198.206 83.9507 197.16 82.8639C196.113 81.7771 194.855 80.9151 193.464 80.3306C192.073 79.7462 190.577 79.4515 189.069 79.4645Z" fill="white"/>
<path d="M181.5 88.99C181.668 88.98 181.837 88.98 182.005 88.99C182.703 87.7877 183.703 86.7883 184.905 86.0905C186.108 85.3927 187.471 85.0208 188.861 85.0113C189.709 85.0114 190.55 85.1561 191.35 85.439C191.44 85.1803 191.555 84.9307 191.693 84.6938C190.796 84.3653 189.849 84.1964 188.894 84.1948C187.285 84.2116 185.711 84.6662 184.341 85.5099C182.971 86.3536 181.857 87.5544 181.118 88.9836C181.245 88.9793 181.373 88.9815 181.5 88.99Z" fill="white"/>
<path d="M195.886 100.725C195.843 101.653 195.637 102.565 195.276 103.421C195.529 103.514 195.767 103.643 195.983 103.803C196.407 102.83 196.649 101.786 196.696 100.725L197.007 92.6642C197.031 91.9122 196.955 91.1603 196.78 90.4286C196.535 90.5578 196.277 90.6578 196.009 90.7267C196.158 91.3634 196.221 92.0172 196.197 92.6707L195.886 100.725Z" fill="white"/>
<path d="M189.717 108.139C189.135 108.279 188.539 108.351 187.941 108.352C186.954 108.354 185.977 108.156 185.069 107.769C184.161 107.382 183.341 106.815 182.659 106.102C181.977 105.389 181.447 104.544 181.1 103.62C180.754 102.696 180.599 101.711 180.645 100.725L180.787 97.0771C180.515 97.0536 180.246 97.0037 179.984 96.9281L179.835 100.725C179.786 101.818 179.961 102.91 180.347 103.933C180.734 104.956 181.325 105.89 182.083 106.678C182.842 107.466 183.753 108.092 184.762 108.516C185.77 108.941 186.854 109.157 187.948 109.149C188.627 109.147 189.303 109.064 189.963 108.903C189.859 108.656 189.776 108.4 189.717 108.139Z" fill="white"/>
<path d="M188.706 88.9772C187.288 88.9941 185.931 89.5538 184.914 90.5411C183.897 91.5283 183.296 92.8679 183.237 94.2843L183.049 99.1702C183.031 99.6258 183.077 100.082 183.185 100.525C183.391 100.276 183.631 100.058 183.898 99.8765C183.865 99.6447 183.852 99.4106 183.859 99.1767L184.047 94.2908C184.105 93.0957 184.617 91.9681 185.48 91.1392C186.343 90.3102 187.49 89.8427 188.686 89.8325C189.263 89.8311 189.834 89.9466 190.365 90.1722C190.895 90.3977 191.375 90.7286 191.774 91.1447C192.173 91.5609 192.484 92.0537 192.687 92.5933C192.89 93.1329 192.982 93.7082 192.957 94.2843L192.769 99.1702C192.727 100.037 192.445 100.874 191.956 101.591C191.466 102.307 190.787 102.873 189.995 103.227C189.981 103.533 189.938 103.836 189.866 104.134C190.91 103.772 191.822 103.106 192.484 102.222C193.145 101.337 193.527 100.274 193.579 99.1702L193.773 94.2843C193.809 93.598 193.705 92.9116 193.466 92.2672C193.228 91.6228 192.86 91.034 192.385 90.537C191.91 90.0399 191.339 89.6452 190.707 89.377C190.074 89.1087 189.393 88.9727 188.706 88.9772Z" fill="white"/>
<path d="M202.333 30.7154H179.588C179.42 30.7155 179.253 30.6817 179.098 30.6162C178.943 30.5506 178.803 30.4545 178.685 30.3336C178.568 30.2127 178.476 30.0695 178.416 29.9125C178.355 29.7554 178.326 29.5878 178.331 29.4194C178.351 29.071 178.503 28.7431 178.755 28.5024C179.008 28.2616 179.343 28.1262 179.692 28.1234H202.43C202.599 28.1225 202.767 28.1556 202.923 28.2208C203.079 28.286 203.22 28.382 203.338 28.5029C203.456 28.6239 203.548 28.7674 203.609 28.9249C203.67 29.0824 203.699 29.2506 203.694 29.4194C203.673 29.7674 203.521 30.0944 203.268 30.3348C203.016 30.5752 202.682 30.7112 202.333 30.7154Z" fill="#7866F2"/>
<path opacity="0.2" d="M165.193 58.272C163.848 58.3774 162.498 58.4077 161.15 58.3627C160.673 58.2606 160.184 58.23 159.698 58.272H159.549C155.745 57.9933 151.981 57.3135 148.319 56.2438C147.944 56.1336 147.555 56.004 147.16 55.8679L144.01 137.432L165.057 123.39C166.009 122.765 166.798 121.923 167.361 120.934C167.925 119.945 168.245 118.837 168.297 117.7L170.41 63.1709C170.44 62.492 170.323 61.8146 170.067 61.1852C169.811 60.5557 169.422 59.9889 168.926 59.5237C168.431 59.0585 167.841 58.7058 167.197 58.4898C166.552 58.2738 165.869 58.1995 165.193 58.272Z" fill="black"/>
<path d="M160.12 52.1873C158.777 52.2949 157.429 52.3273 156.083 52.2845C155.606 52.1834 155.117 52.1507 154.631 52.1873H154.475C150.673 51.9112 146.911 51.2313 143.252 50.159C138.664 48.7328 134.437 46.3372 130.856 43.1347C129.986 42.297 128.824 41.8319 127.616 41.8387H122.121C120.889 41.8477 119.704 42.3089 118.79 43.1347C114.989 46.3276 110.58 48.7171 105.83 50.159C102.117 51.2265 98.3041 51.9062 94.4512 52.1873H94.2957C93.8076 52.1507 93.3167 52.1834 92.8377 52.2845C91.4934 52.3274 90.1478 52.295 88.8072 52.1873C88.1168 52.1345 87.4228 52.2205 86.7662 52.4404C86.1096 52.6602 85.5037 53.0093 84.9842 53.4672C84.4648 53.925 84.0423 54.4823 83.7418 55.1061C83.4412 55.7298 83.2687 56.4075 83.2344 57.0991L81.1219 111.635C81.0738 112.739 81.303 113.837 81.7886 114.83C82.2742 115.823 83.0007 116.678 83.9018 117.318L114.455 138.805C115.58 139.595 116.923 140.016 118.298 140.011H123.786C125.189 140.006 126.56 139.586 127.726 138.805L159.938 117.318C160.887 116.692 161.675 115.851 162.237 114.864C162.8 113.876 163.123 112.77 163.178 111.635L165.284 57.0991C165.312 56.4248 165.195 55.7524 164.942 55.1268C164.689 54.5013 164.305 53.9371 163.816 53.472C163.327 53.0069 162.744 52.6517 162.106 52.4301C161.469 52.2086 160.792 52.1258 160.12 52.1873Z" fill="#7866F2"/>
<path opacity="0.8" d="M160.12 52.1873C158.777 52.2949 157.429 52.3273 156.083 52.2845C155.606 52.1834 155.117 52.1507 154.631 52.1873H154.475C150.673 51.9112 146.911 51.2313 143.252 50.159C138.664 48.7328 134.437 46.3372 130.856 43.1347C129.986 42.297 128.824 41.8319 127.616 41.8387H122.121C120.889 41.8477 119.704 42.3089 118.79 43.1347C114.989 46.3276 110.58 48.7171 105.83 50.159C102.117 51.2265 98.3041 51.9062 94.4512 52.1873H94.2957C93.8076 52.1507 93.3167 52.1834 92.8377 52.2845C91.4934 52.3274 90.1478 52.295 88.8072 52.1873C88.1168 52.1345 87.4228 52.2205 86.7662 52.4404C86.1096 52.6602 85.5037 53.0093 84.9842 53.4672C84.4648 53.925 84.0423 54.4823 83.7418 55.1061C83.4412 55.7298 83.2687 56.4075 83.2344 57.0991L81.1219 111.635C81.0738 112.739 81.303 113.837 81.7886 114.83C82.2742 115.823 83.0007 116.678 83.9018 117.318L114.455 138.805C115.58 139.595 116.923 140.016 118.298 140.011H123.786C125.189 140.006 126.56 139.586 127.726 138.805L159.938 117.318C160.887 116.692 161.675 115.851 162.237 114.864C162.8 113.876 163.123 112.77 163.178 111.635L165.284 57.0991C165.312 56.4248 165.195 55.7524 164.942 55.1268C164.689 54.5013 164.305 53.9371 163.816 53.472C163.327 53.0069 162.744 52.6517 162.106 52.4301C161.469 52.2086 160.792 52.1258 160.12 52.1873Z" fill="white"/>
<path d="M84.6923 111.531L86.7076 59.3865C86.7523 58.4305 87.1612 57.5278 87.8505 56.8638C88.5398 56.1998 89.4571 55.8249 90.4142 55.816H91.6C96.7276 55.7523 101.822 54.9892 106.744 53.548C111.425 52.1294 115.814 49.8843 119.704 46.919C120.344 46.3969 121.145 46.1118 121.972 46.1118C122.798 46.1118 123.599 46.3969 124.24 46.919C127.931 49.903 132.158 52.1552 136.694 53.5545C141.556 55.003 146.597 55.7664 151.67 55.8225H152.765C153.237 55.8184 153.705 55.9107 154.14 56.0938C154.575 56.2769 154.968 56.5469 155.295 56.8873C155.622 57.2276 155.876 57.6312 156.041 58.0732C156.207 58.5152 156.28 58.9863 156.257 59.4578L154.242 111.538C154.215 112.124 154.05 112.696 153.761 113.207C153.472 113.719 153.066 114.154 152.577 114.479L120.566 135.863C119.972 136.269 119.269 136.485 118.55 136.485C117.831 136.485 117.129 136.269 116.535 135.863L86.1698 114.479C85.695 114.152 85.3107 113.71 85.0524 113.195C84.7941 112.68 84.6702 112.107 84.6923 111.531Z" fill="#7866F2"/>
<path opacity="0.2" d="M93.5894 108.777L95.3001 64.4474C99.8812 64.085 104.414 63.2622 108.83 61.9915C113.335 60.6366 117.63 58.6606 121.589 56.1206C125.382 58.6724 129.531 60.6507 133.901 61.9915C138.252 63.2678 142.724 64.0908 147.244 64.4474L145.527 108.777L118.868 126.558L93.5894 108.777Z" fill="white"/>
<path opacity="0.2" d="M102.551 104.144L103.789 72.1262C106.161 71.6791 108.552 71.1153 110.917 70.4349C114.462 69.3907 117.897 68.0062 121.175 66.3007C124.344 68.012 127.679 69.3971 131.128 70.4349C133.47 71.1131 135.809 71.6769 138.146 72.1262L136.908 104.144L119.283 115.944L102.551 104.144Z" fill="white"/>
</svg>
